<?xml version="1.0" encoding="utf-8"?>
<!-- Generator: Adobe Illustrator 23.0.1, SVG Export Plug-In . SVG Version: 6.00 Build 0)  -->
<svg version="1.1" id="Layer_1" xmlns="http://www.w3.org/2000/svg" xmlns:xlink="http://www.w3.org/1999/xlink" x="0px" y="0px"
	 viewBox="0 0 893.4 100" style="enable-background:new 0 0 893.4 100;" xml:space="preserve">
<style type="text/css">
	.st0{clip-path:url(#SVGID_2_);}
	.st1{opacity:0.998;fill:#FE2C25;enable-background:new    ;}
	.st2{opacity:0.998;fill:#2785FC;enable-background:new    ;}
	.st3{opacity:0.998;fill:#FFBA00;enable-background:new    ;}
	.st4{opacity:0.998;fill:#00A050;enable-background:new    ;}
	.st5{fill:#707070;}
	.st6{font-family:'GoogleSans-Bold';}
	.st7{font-size:53.8328px;}
</style>
<g>
	<defs>
		<rect id="SVGID_1_" width="852" height="100"/>
	</defs>
	<clipPath id="SVGID_2_">
		<use xlink:href="#SVGID_1_"  style="overflow:visible;"/>
	</clipPath>
	<g id="custom_2" class="st0">
		<g id="Group_1" transform="translate(-21.822 -13.088)">
			<path id="Path_1" class="st1" d="M78.3,55.3L53.9,68.9c-3.4,1.9-7.6,0.8-9.6-2.5c-1.9-3.2-0.8-7.3,2.4-9.2c0.1,0,0.1-0.1,0.2-0.1
				l24.4-13.6c3.4-1.9,7.6-0.8,9.6,2.5c1.9,3.2,0.8,7.3-2.4,9.2C78.4,55.2,78.3,55.3,78.3,55.3z"/>
			<path id="Path_2" class="st2" d="M71.2,82.5L46.9,68.9c-3.3-1.8-4.5-5.8-2.7-9.1c0-0.1,0.1-0.1,0.1-0.2c2-3.3,6.3-4.4,9.6-2.5
				l24.4,13.6c3.3,1.8,4.5,5.8,2.7,9.1c0,0.1-0.1,0.1-0.1,0.2C78.8,83.3,74.6,84.4,71.2,82.5z"/>
			<path id="Path_4" class="st3" d="M99.3,82.5l24.4-13.6c3.3-1.8,4.5-5.8,2.7-9.1c0-0.1-0.1-0.1-0.1-0.2c-2-3.3-6.3-4.4-9.6-2.5
				L92.3,70.7c-3.3,1.8-4.5,5.8-2.7,9.1c0,0.1,0.1,0.1,0.1,0.2C91.7,83.3,96,84.4,99.3,82.5z"/>
			<path id="Path_3" class="st4" d="M92.3,55.3l24.4,13.6c3.4,1.9,7.6,0.8,9.6-2.5c1.9-3.2,0.8-7.3-2.4-9.2c-0.1,0-0.1-0.1-0.2-0.1
				L99.3,43.5c-3.4-1.9-7.6-0.8-9.6,2.5c-1.9,3.2-0.8,7.3,2.4,9.2C92.1,55.2,92.2,55.3,92.3,55.3z"/>
		</g>
		<path id="Path_5" class="st5" d="M141.3,65.7V35.8h8.6c2-0.1,4.1,0.3,6,1c1.6,0.6,2.9,1.6,4,2.9c1.1,1.4,1.8,3,2.2,4.6
			c0.5,2,0.7,4.1,0.7,6.2c0,2-0.2,4.1-0.7,6.1c-0.4,1.5-1,2.9-1.9,4.2c-0.7,1-1.5,1.9-2.6,2.6c-0.9,0.6-1.9,1.1-2.9,1.5
			c-0.9,0.3-1.8,0.5-2.8,0.6c-0.7,0.1-1.4,0.1-2.2,0.1L141.3,65.7z M136.2,31.4V70h13.2c2.8,0.1,5.6-0.4,8.3-1.3
			c2.2-0.8,4.2-2.2,5.8-3.9c1.6-1.8,2.7-4,3.3-6.3c0.8-2.8,1.1-5.7,1.1-8.6c0-6.2-1.6-10.8-4.8-13.8c-3.2-3-7.8-4.5-13.7-4.5H136.2z
			 M192.9,53.4h-16c0.1-1,0.3-2.1,0.7-3.1c0.4-0.9,0.9-1.8,1.6-2.5c0.7-0.7,1.5-1.3,2.5-1.7c1-0.4,2.1-0.6,3.2-0.6
			c1.1,0,2.2,0.2,3.2,0.6c0.9,0.4,1.8,1,2.5,1.7c0.7,0.7,1.3,1.6,1.7,2.5C192.5,51.3,192.8,52.3,192.9,53.4z M197.3,61.1h-4.5
			c-0.3,1.6-1.1,3.1-2.5,4.1c-1.4,1-3.1,1.4-4.8,1.4c-1.4,0-2.7-0.2-3.9-0.8c-1.1-0.5-2-1.2-2.8-2c-0.7-0.9-1.3-1.8-1.6-2.9
			c-0.3-1.1-0.5-2.3-0.4-3.5h20.9c0.1-1.8-0.1-3.6-0.5-5.3c-0.4-1.8-1.1-3.6-2.1-5.2c-1-1.6-2.3-2.9-3.9-3.9c-1.9-1.1-4-1.6-6.2-1.5
			c-1.8,0-3.6,0.3-5.3,1.1c-1.6,0.7-3,1.7-4.2,3c-1.2,1.3-2.1,2.9-2.7,4.6c-0.7,1.9-1,3.8-1,5.8c0,2,0.4,4,0.9,5.9
			c0.5,1.7,1.4,3.3,2.5,4.6c1.1,1.3,2.5,2.3,4.1,3c1.8,0.8,3.8,1.1,5.8,1.1c2.8,0.1,5.6-0.7,7.9-2.4
			C195.4,66.5,196.9,63.9,197.3,61.1z M215.1,70l10.2-27.9h-4.8l-7.6,23.3h-0.1l-7.8-23.3h-5.1L210.1,70H215.1z M248.9,53.4h-16
			c0.1-1,0.3-2.1,0.7-3.1c0.4-0.9,0.9-1.8,1.6-2.5c0.7-0.7,1.5-1.3,2.5-1.7c1-0.4,2.1-0.6,3.2-0.6c1.1,0,2.2,0.2,3.2,0.6
			c0.9,0.4,1.8,1,2.5,1.7c0.7,0.7,1.3,1.6,1.7,2.5C248.5,51.3,248.8,52.3,248.9,53.4L248.9,53.4z M253.3,61.1h-4.5
			c-0.3,1.6-1.1,3.1-2.5,4.1c-1.4,0.9-3.1,1.4-4.8,1.3c-1.4,0-2.7-0.2-3.9-0.8c-1.1-0.5-2-1.2-2.8-2c-0.7-0.8-1.3-1.8-1.6-2.9
			c-0.3-1.1-0.5-2.3-0.4-3.5h20.9c0.1-1.8-0.1-3.6-0.5-5.3c-0.4-1.8-1.1-3.6-2.1-5.2c-1-1.6-2.3-2.9-3.9-3.9c-1.9-1.1-4-1.6-6.2-1.5
			c-1.8,0-3.6,0.3-5.3,1.1c-1.6,0.7-3,1.7-4.2,3c-1.2,1.3-2.1,2.9-2.7,4.6c-0.7,1.9-1,3.8-1,5.8c0,2,0.4,4,0.9,5.9
			c0.5,1.7,1.4,3.3,2.5,4.6c1.1,1.3,2.5,2.3,4.1,3c1.8,0.8,3.8,1.1,5.8,1.1c2.8,0.1,5.6-0.7,7.9-2.4
			C251.4,66.5,252.9,63.9,253.3,61.1L253.3,61.1z M258.7,31.4V70h4.6V31.4H258.7z M273.8,56.1c0-1.5,0.2-3.1,0.7-4.5
			c0.4-1.2,1-2.3,1.9-3.3c0.8-0.9,1.7-1.6,2.8-2.1c1.1-0.5,2.2-0.7,3.4-0.7c1.2,0,2.3,0.2,3.4,0.7c1.1,0.5,2,1.2,2.8,2.1
			c0.8,1,1.5,2.1,1.9,3.3c0.5,1.5,0.7,3,0.7,4.5c0,1.5-0.2,3.1-0.7,4.5c-0.4,1.2-1,2.3-1.9,3.3c-0.8,0.9-1.7,1.6-2.8,2
			c-1.1,0.5-2.2,0.7-3.4,0.7c-1.2,0-2.3-0.2-3.4-0.7c-1.1-0.5-2-1.2-2.8-2c-0.8-1-1.5-2.1-1.9-3.3C274,59.1,273.8,57.6,273.8,56.1z
			 M268.9,56.1c0,1.9,0.3,3.9,0.9,5.7c0.5,1.7,1.4,3.3,2.6,4.6c1.2,1.3,2.6,2.4,4.3,3.1c1.8,0.8,3.8,1.1,5.8,1.1c2,0,4-0.3,5.9-1.1
			c1.6-0.7,3.1-1.8,4.2-3.1c1.2-1.3,2.1-2.9,2.6-4.6c0.6-1.9,0.9-3.8,0.9-5.7c0-2-0.3-3.9-0.9-5.8c-0.5-1.7-1.4-3.3-2.6-4.6
			c-1.2-1.3-2.6-2.4-4.2-3.1c-1.8-0.8-3.8-1.2-5.9-1.1c-2,0-4,0.3-5.8,1.1c-1.6,0.7-3.1,1.8-4.3,3.1c-1.2,1.4-2.1,2.9-2.6,4.6
			C269.2,52.2,268.9,54.1,268.9,56.1L268.9,56.1z M301.6,42.1v38.6h4.6V66.3h0.1c0.5,0.8,1.1,1.5,1.9,2.1c0.7,0.5,1.5,1,2.3,1.3
			c0.8,0.3,1.7,0.6,2.5,0.7c0.8,0.1,1.5,0.2,2.3,0.2c1.9,0,3.8-0.3,5.6-1.1c1.6-0.7,2.9-1.8,4-3.1c1.1-1.4,1.9-2.9,2.4-4.6
			c0.5-1.8,0.8-3.7,0.8-5.6c0-1.9-0.3-3.8-0.8-5.6c-0.5-1.7-1.3-3.3-2.4-4.7c-1.1-1.4-2.4-2.5-4-3.2c-1.8-0.8-3.7-1.2-5.6-1.2
			c-1.8,0-3.7,0.3-5.3,1.1c-1.6,0.6-2.8,1.8-3.6,3.4h-0.1v-3.8H301.6z M323.2,55.8c0,1.3-0.1,2.7-0.4,4c-0.3,1.2-0.7,2.4-1.4,3.5
			c-0.6,1-1.5,1.8-2.6,2.4c-1.2,0.7-2.6,1-4,0.9c-1.4,0-2.8-0.3-4-0.9c-1.1-0.6-2-1.4-2.7-2.3c-0.7-1-1.2-2.2-1.5-3.4
			c-0.3-1.3-0.5-2.6-0.5-4c0-1.3,0.2-2.6,0.5-3.8c0.3-1.2,0.8-2.4,1.5-3.4c0.7-1,1.6-1.8,2.6-2.4c1.2-0.6,2.6-1,3.9-0.9
			c1.3,0,2.7,0.3,3.9,0.9c1.1,0.6,2,1.3,2.7,2.3c0.7,1,1.2,2.1,1.6,3.3C323,53.2,323.2,54.5,323.2,55.8L323.2,55.8z M352.9,53.4h-16
			c0.1-1,0.3-2.1,0.7-3.1c0.4-0.9,0.9-1.8,1.6-2.5c0.7-0.7,1.5-1.3,2.5-1.7c1-0.4,2.1-0.6,3.2-0.6c1.1,0,2.2,0.2,3.2,0.6
			c0.9,0.4,1.8,1,2.5,1.7c0.7,0.7,1.3,1.6,1.7,2.5C352.5,51.3,352.8,52.3,352.9,53.4L352.9,53.4z M357.3,61.1h-4.5
			c-0.3,1.6-1.1,3.1-2.5,4.1c-1.4,0.9-3.1,1.4-4.8,1.3c-1.4,0-2.7-0.2-3.9-0.8c-1.1-0.5-2-1.2-2.8-2c-0.7-0.8-1.3-1.8-1.6-2.9
			c-0.3-1.1-0.5-2.3-0.4-3.5h20.9c0.1-1.8-0.1-3.6-0.5-5.3c-0.4-1.8-1.1-3.6-2.1-5.2c-1-1.6-2.3-2.9-3.9-3.9c-1.9-1.1-4-1.6-6.2-1.5
			c-1.8,0-3.6,0.3-5.3,1.1c-1.6,0.7-3,1.7-4.2,3c-1.2,1.3-2.1,2.9-2.7,4.6c-0.7,1.9-1,3.8-1,5.8c0.1,2,0.4,4,0.9,5.9
			c0.5,1.7,1.4,3.3,2.5,4.6c1.1,1.3,2.5,2.3,4.1,3c1.8,0.8,3.8,1.1,5.8,1.1c2.8,0.1,5.6-0.7,7.9-2.4
			C355.4,66.5,356.9,63.9,357.3,61.1L357.3,61.1z M362.3,42.1V70h4.6V57.6c0-1.6,0.2-3.2,0.5-4.8c0.3-1.3,0.9-2.5,1.7-3.5
			c0.8-1,1.9-1.8,3.1-2.2c1.5-0.5,3.1-0.8,4.7-0.8v-4.9c-2.2-0.2-4.3,0.4-6.2,1.5c-1.8,1.3-3.2,3-4.1,5h-0.1v-5.9L362.3,42.1z
			 M418.5,42.7h4.9c0-1.9-0.4-3.8-1.2-5.5c-0.7-1.5-1.7-2.8-3-3.8c-1.3-1-2.8-1.8-4.5-2.2c-1.8-0.5-3.6-0.7-5.5-0.7
			c-1.7,0-3.5,0.2-5.2,0.7c-1.6,0.4-3.1,1.1-4.5,2.1c-1.3,0.9-2.4,2.1-3.2,3.5c-0.8,1.6-1.2,3.3-1.2,5c-0.1,1.5,0.3,3.1,1.1,4.4
			c0.7,1.2,1.7,2.1,2.8,2.9c1.2,0.8,2.6,1.4,4,1.8c1.5,0.4,3,0.8,4.5,1.2c1.5,0.3,3,0.7,4.5,1c1.4,0.3,2.7,0.7,4,1.3
			c1.1,0.5,2,1.1,2.8,2c0.7,0.9,1.1,2.1,1.1,3.2c0.1,1.2-0.2,2.4-0.9,3.5c-0.6,0.9-1.3,1.6-2.3,2.1c-1,0.5-2.1,0.9-3.2,1.1
			c-1.1,0.2-2.3,0.3-3.5,0.3c-1.4,0-2.8-0.2-4.2-0.5c-1.3-0.3-2.5-0.9-3.6-1.7c-1-0.8-1.9-1.8-2.5-2.9c-0.7-1.3-1-2.7-0.9-4.2H394
			c-0.1,2.1,0.4,4.2,1.3,6.1c0.8,1.7,2,3.1,3.5,4.2c1.5,1.1,3.2,2,5.1,2.5c2,0.5,4.1,0.8,6.1,0.8c1.8,0,3.6-0.2,5.3-0.6
			c1.7-0.4,3.3-1.1,4.8-2c1.4-0.9,2.6-2.1,3.5-3.6c1-1.6,1.4-3.4,1.4-5.3c0.1-1.6-0.3-3.3-1.1-4.8c-0.7-1.2-1.6-2.3-2.8-3.1
			c-1.2-0.9-2.6-1.5-4-2c-1.5-0.5-3-0.9-4.5-1.3c-1.5-0.4-3-0.7-4.5-1c-1.4-0.3-2.7-0.7-4-1.2c-1.1-0.4-2-1-2.8-1.8
			c-0.7-0.8-1.1-1.8-1.1-2.9c0-1.1,0.2-2.2,0.7-3.2c0.5-0.8,1.1-1.5,1.9-2c0.9-0.5,1.8-0.9,2.8-1.1c1-0.2,2.1-0.3,3.2-0.3
			c2.3-0.1,4.6,0.6,6.6,1.9C417.2,38,418.2,40,418.5,42.7L418.5,42.7z M436.8,42.1v-8.4h-4.6v8.4h-4.8v4h4.8v17.8
			c0,1.1,0.1,2.1,0.4,3.1c0.2,0.7,0.6,1.3,1.2,1.8c0.6,0.5,1.3,0.8,2.1,0.9c1,0.2,2,0.3,3.1,0.2h3.5v-4.1h-2.1c-0.6,0-1.2,0-1.8-0.1
			c-0.4,0-0.7-0.1-1.1-0.4c-0.3-0.2-0.4-0.5-0.5-0.8c-0.1-0.4-0.1-0.9-0.1-1.3V46.1h5.6v-4H436.8z M470.6,70V42.1H466v15.8
			c0,1.2-0.2,2.4-0.5,3.5c-0.3,1-0.8,2-1.5,2.8c-0.7,0.8-1.6,1.4-2.6,1.8c-1.2,0.5-2.4,0.7-3.6,0.6c-1.5,0.1-3-0.5-4.2-1.5
			c-1-1.1-1.6-2.6-1.5-4.1V42.1h-4.6v18.4c0,1.4,0.1,2.8,0.5,4.1c0.3,1.2,0.8,2.3,1.6,3.2c0.8,0.9,1.8,1.6,3,2.1
			c1.5,0.5,3,0.8,4.6,0.7c1.9,0,3.7-0.4,5.3-1.2c1.6-0.9,2.9-2.2,3.7-3.8h0.1V70H470.6z M480.8,56.3c0-1.3,0.1-2.7,0.4-4
			c0.3-1.2,0.7-2.4,1.4-3.5c0.7-1,1.5-1.8,2.6-2.4c1.2-0.6,2.6-1,3.9-0.9c1.4,0,2.8,0.3,4,0.9c1.1,0.6,2,1.4,2.7,2.3
			c0.7,1,1.2,2.2,1.5,3.4c0.3,1.3,0.5,2.6,0.5,4c0,1.3-0.2,2.6-0.5,3.8c-0.3,1.2-0.8,2.4-1.5,3.4c-0.7,1-1.6,1.8-2.6,2.4
			c-1.2,0.6-2.6,1-3.9,0.9c-1.3,0-2.7-0.3-3.9-0.9c-1.1-0.6-2-1.3-2.7-2.3c-0.7-1-1.2-2.1-1.6-3.3C481,58.8,480.8,57.6,480.8,56.3z
			 M502.4,70V31.4h-4.6v14.4h-0.1c-0.5-0.8-1.1-1.5-1.9-2.1c-0.7-0.5-1.5-1-2.3-1.4c-0.8-0.3-1.6-0.6-2.5-0.7
			c-0.8-0.1-1.5-0.2-2.3-0.2c-1.9,0-3.8,0.4-5.6,1.2c-1.6,0.7-2.9,1.8-4,3.1c-1.1,1.4-1.9,2.9-2.4,4.6c-0.5,1.8-0.8,3.7-0.8,5.6
			c0,1.9,0.3,3.8,0.8,5.6c0.5,1.7,1.3,3.3,2.4,4.6c1.1,1.3,2.4,2.4,4,3.2c1.8,0.8,3.7,1.2,5.6,1.2c1.8,0,3.7-0.3,5.3-1
			c1.6-0.6,2.8-1.8,3.6-3.3h0.1V70H502.4z M528.9,53.4h-16c0.1-1,0.3-2.1,0.7-3.1c0.4-0.9,0.9-1.8,1.6-2.5c0.7-0.7,1.5-1.3,2.5-1.7
			c1-0.4,2.1-0.6,3.2-0.6c1.1,0,2.2,0.2,3.2,0.6c0.9,0.4,1.8,1,2.5,1.7c0.7,0.7,1.3,1.6,1.7,2.5C528.6,51.3,528.8,52.3,528.9,53.4z
			 M533.3,61.1h-4.5c-0.3,1.6-1.1,3.1-2.5,4.1c-1.4,0.9-3.1,1.4-4.8,1.3c-1.4,0-2.7-0.2-3.9-0.8c-1.1-0.5-2-1.2-2.8-2
			c-0.7-0.8-1.3-1.8-1.6-2.9c-0.3-1.1-0.5-2.3-0.4-3.5h20.9c0.1-1.8-0.1-3.6-0.5-5.3c-0.4-1.8-1.1-3.6-2.1-5.2
			c-1-1.6-2.3-2.9-3.9-3.9c-1.9-1.1-4-1.6-6.2-1.5c-1.8,0-3.6,0.3-5.3,1.1c-1.6,0.7-3,1.7-4.2,3c-1.2,1.3-2.1,2.9-2.7,4.6
			c-0.7,1.9-1,3.8-1,5.8c0.1,2,0.4,4,0.9,5.9c0.5,1.7,1.4,3.3,2.5,4.6c1.1,1.3,2.5,2.3,4.1,3c1.8,0.8,3.8,1.1,5.8,1.1
			c2.8,0.1,5.6-0.7,7.9-2.4C531.5,66.5,532.9,63.9,533.3,61.1z M538.5,42.1V70h4.6V54.2c0-1.2,0.2-2.4,0.5-3.5c0.3-1,0.8-2,1.5-2.8
			c0.7-0.8,1.6-1.4,2.6-1.8c1.2-0.5,2.4-0.7,3.6-0.6c1.5-0.1,3,0.5,4.2,1.5c1,1.1,1.6,2.6,1.5,4.1V70h4.6V51.6
			c0-1.4-0.1-2.8-0.5-4.1c-0.3-1.2-0.8-2.3-1.6-3.2c-0.8-0.9-1.8-1.7-3-2.1c-1.5-0.5-3-0.8-4.6-0.8c-4.1,0-7.2,1.7-9.1,5.1h-0.1
			v-4.4H538.5z M574.9,42.1v-8.4h-4.6v8.4h-4.8v4h4.8v17.8c0,1.1,0.1,2.1,0.4,3.1c0.2,0.7,0.6,1.3,1.2,1.8c0.6,0.5,1.3,0.8,2.1,0.9
			c1,0.2,2,0.3,3,0.2h3.5v-4.1h-2.1c-0.6,0-1.2,0-1.8-0.1c-0.4,0-0.7-0.1-1.1-0.4c-0.3-0.2-0.4-0.5-0.5-0.8
			c-0.1-0.4-0.1-0.9-0.1-1.3V46.1h5.6v-4H574.9z M628.4,43.1h5.1c-0.2-1.9-0.9-3.8-1.8-5.4c-0.9-1.5-2.1-2.9-3.5-3.9
			c-1.5-1.1-3.1-1.9-4.8-2.4c-1.9-0.5-3.8-0.8-5.7-0.8c-2.7-0.1-5.4,0.5-7.9,1.6c-2.2,1-4.2,2.5-5.7,4.3c-1.6,1.9-2.8,4.1-3.5,6.5
			c-0.8,2.6-1.2,5.2-1.2,7.9c0,2.7,0.4,5.3,1.1,7.9c0.7,2.3,1.8,4.5,3.3,6.4c1.5,1.8,3.4,3.3,5.6,4.2c2.5,1.1,5.1,1.6,7.8,1.5
			c4.9,0,8.8-1.3,11.7-4c2.8-2.7,4.5-6.5,5-11.3h-5.1c-0.1,1.5-0.4,3-1,4.4c-0.5,1.3-1.3,2.5-2.2,3.5c-1,1-2.1,1.8-3.4,2.3
			c-1.4,0.6-3,0.9-4.5,0.8c-2.1,0.1-4.1-0.4-5.9-1.3c-1.6-0.8-3-2-4.1-3.5c-1.1-1.5-1.9-3.3-2.3-5.1c-0.5-2-0.8-4.1-0.8-6.2
			c0-2,0.2-3.9,0.8-5.8c0.5-1.8,1.3-3.5,2.3-5c1.1-1.5,2.4-2.7,4-3.5c1.8-0.9,3.9-1.4,5.9-1.3c2.5-0.1,4.9,0.7,7,2.1
			C626.6,38.4,628,40.6,628.4,43.1L628.4,43.1z M639.8,31.4V70h4.6V31.4H639.8z M674.6,70V42.1h-4.6v15.8c0,1.2-0.2,2.4-0.5,3.5
			c-0.3,1-0.8,2-1.5,2.8c-0.7,0.8-1.6,1.4-2.6,1.8c-1.2,0.5-2.4,0.7-3.6,0.6c-1.5,0.1-3-0.5-4.2-1.5c-1-1.1-1.6-2.6-1.5-4.1V42.1
			h-4.6v18.4c0,1.4,0.1,2.8,0.5,4.1c0.3,1.2,0.8,2.3,1.6,3.2c0.8,0.9,1.8,1.6,3,2.1c1.5,0.5,3,0.8,4.6,0.7c1.9,0,3.7-0.4,5.3-1.2
			c1.6-0.9,2.9-2.2,3.7-3.8h0.1V70H674.6z M681.7,31.4V70h4.6v-3.7h0.1c0.5,0.8,1.1,1.5,1.9,2.1c0.7,0.5,1.5,1,2.3,1.3
			c0.8,0.3,1.7,0.6,2.5,0.7c0.8,0.1,1.5,0.2,2.3,0.2c1.9,0,3.8-0.3,5.6-1.1c1.6-0.7,2.9-1.8,4-3.1c1.1-1.4,1.9-2.9,2.4-4.6
			c0.5-1.8,0.8-3.7,0.8-5.6c0-1.9-0.3-3.8-0.8-5.6c-0.5-1.7-1.3-3.3-2.4-4.7c-1.1-1.4-2.4-2.5-4-3.2c-1.8-0.8-3.7-1.2-5.6-1.2
			c-1.8,0-3.7,0.3-5.3,1.1c-1.6,0.6-2.8,1.8-3.6,3.4h-0.1V31.4H681.7z M703.3,55.8c0,1.3-0.1,2.7-0.4,4c-0.3,1.2-0.7,2.4-1.4,3.5
			c-0.6,1-1.5,1.8-2.6,2.4c-1.2,0.7-2.6,1-4,0.9c-1.4,0-2.8-0.3-4-0.9c-1.1-0.6-2-1.4-2.7-2.3c-0.7-1-1.2-2.2-1.5-3.4
			c-0.3-1.3-0.5-2.6-0.5-4c0-1.3,0.2-2.6,0.5-3.8c0.3-1.2,0.8-2.4,1.5-3.4c0.7-1,1.6-1.8,2.6-2.4c1.2-0.6,2.6-1,3.9-0.9
			c1.3,0,2.7,0.3,3.9,0.9c1.1,0.6,2,1.3,2.7,2.3c0.7,1,1.2,2.1,1.6,3.3C703.2,53.2,703.3,54.5,703.3,55.8z M716.4,61.2h-4.6
			c0,1.5,0.4,3,1.1,4.4c0.6,1.2,1.5,2.2,2.6,2.9c1.1,0.8,2.4,1.3,3.7,1.6c1.5,0.3,2.9,0.5,4.4,0.5c1.4,0,2.8-0.1,4.2-0.4
			c1.4-0.2,2.7-0.7,3.8-1.4c1.1-0.7,2.1-1.6,2.8-2.7c0.7-1.3,1.1-2.7,1-4.2c0-1.2-0.2-2.3-0.8-3.3c-0.5-0.9-1.2-1.7-2.1-2.2
			c-0.9-0.6-1.9-1.1-2.9-1.4c-1.1-0.4-2.2-0.7-3.4-0.9c-1.1-0.3-2.2-0.5-3.2-0.7c-1-0.2-2-0.5-2.9-0.9c-0.8-0.3-1.5-0.7-2.1-1.3
			c-0.6-0.5-0.9-1.2-0.8-2c0-0.6,0.2-1.3,0.5-1.8c0.4-0.5,0.9-0.8,1.4-1.1c0.6-0.3,1.3-0.5,1.9-0.6c0.7-0.1,1.4-0.2,2.1-0.2
			c0.8,0,1.5,0.1,2.2,0.2c0.7,0.2,1.4,0.4,2,0.8c0.6,0.4,1.1,0.8,1.5,1.4c0.4,0.7,0.7,1.4,0.7,2.2h4.6c-0.1-1.5-0.4-2.9-1.1-4.2
			c-0.6-1.1-1.4-2-2.5-2.7c-1.1-0.7-2.3-1.2-3.5-1.4c-1.4-0.3-2.9-0.4-4.4-0.4c-1.2,0-2.5,0.2-3.7,0.5c-1.2,0.3-2.3,0.8-3.3,1.4
			c-1,0.6-1.8,1.5-2.4,2.5c-0.7,1.1-1,2.3-0.9,3.6c-0.1,1.5,0.4,3,1.3,4.2c0.9,1,2.1,1.8,3.4,2.3c1.4,0.6,2.9,1,4.4,1.3
			c1.6,0.3,3.1,0.6,4.4,1c1.2,0.3,2.3,0.8,3.4,1.5c0.9,0.6,1.4,1.6,1.3,2.7c0,0.8-0.2,1.5-0.6,2.1c-0.4,0.6-1,1-1.6,1.3
			c-0.7,0.3-1.4,0.5-2.2,0.6c-0.8,0.1-1.5,0.2-2.3,0.2c-0.9,0-1.8-0.1-2.7-0.3c-0.8-0.2-1.6-0.5-2.4-0.9c-0.7-0.4-1.3-1-1.7-1.7
			C716.6,63,716.4,62.1,716.4,61.2z"/>
	</g>
</g>
<text transform="matrix(1 0 0 1 749.7226 70.04)" class="st5 st6 st7">VIPS</text>
</svg>
